<svg id="Layer_1" data-name="Layer 1" xmlns="http://www.w3.org/2000/svg" viewBox="0 0 903.48 382.33"><defs><style>.cls-1{fill:none;stroke:#f63;stroke-miterlimit:10;stroke-width:10px;}</style></defs><title>soff</title><path class="cls-1" d="M163.81,427.89V313.77q0-4.22,4.09-6.9t10.56-2.68a16.07,16.07,0,0,1,9.3,2.71,8.18,8.18,0,0,1,4,7v10.27q12.1-21.64,37.47-21.65a34.29,34.29,0,0,1,22.12,7.83A49.09,49.09,0,0,1,266.09,331q7.05-13.95,18.46-21.2a44.26,44.26,0,0,1,24.09-7.26q20,0,34.52,15.08T357.67,358v69.88c0,2.44-1.51,4.7-4.51,6.76a17.94,17.94,0,0,1-10.43,3.1,17.5,17.5,0,0,1-10.14-3.09c-3-2.06-4.51-4.3-4.51-6.74v-69.7q0-13.77-7.89-21.64a25.13,25.13,0,0,0-18.31-7.87q-10.42,0-18.46,7.87t-8,21.08V428.2a7.72,7.72,0,0,1-4.37,7.17,21.74,21.74,0,0,1-10.56,2.38,21.38,21.38,0,0,1-10.15-2.38,7.69,7.69,0,0,1-4.5-7.17V357.94q0-12.65-7.75-20.8A24.63,24.63,0,0,0,219.6,329a25,25,0,0,0-18.45,7.87q-7.76,7.88-7.75,21.36v69.7c0,2.44-1.51,4.68-4.51,6.74a18,18,0,0,1-10.43,3.09,17.12,17.12,0,0,1-10.42-3.1C165.22,432.59,163.81,430.33,163.81,427.89Z" transform="translate(-158.81 -234.67)"/><path class="cls-1" d="M385,255.17a14.16,14.16,0,0,1,5.07-11,18.53,18.53,0,0,1,24.23,0,14.28,14.28,0,0,1,0,21.83,18.11,18.11,0,0,1-24.23,0A14.28,14.28,0,0,1,385,255.17Zm2.53,172.72V313.77q0-4.22,4.09-6.9t10.57-2.68a19.72,19.72,0,0,1,10.7,2.68q4.23,2.69,4.23,6.9V427.89c0,2.44-1.46,4.7-4.37,6.76a17.76,17.76,0,0,1-10.56,3.1,17.13,17.13,0,0,1-10.43-3.1C388.94,432.59,387.53,430.33,387.53,427.89Z" transform="translate(-158.81 -234.67)"/><path class="cls-1" d="M448.11,427.89V313.77q0-4.22,4.09-6.9t10.56-2.68a15.88,15.88,0,0,1,9.44,2.71,8.25,8.25,0,0,1,3.81,7v10.27q4.5-9.12,14.51-15.38a42.8,42.8,0,0,1,23.24-6.27q20,0,34.52,16.35T562.79,358v69.88c0,3-1.46,5.4-4.37,7.19a19.86,19.86,0,0,1-10.56,2.67,19.55,19.55,0,0,1-10.15-2.67q-4.5-2.65-4.5-7.16v-69.7q0-11.24-8.46-20.24t-20-9a26.16,26.16,0,0,0-18.88,8q-8.17,8-8.17,21.22v69.7c0,2.44-1.51,4.68-4.51,6.74a18,18,0,0,1-10.43,3.09,17.12,17.12,0,0,1-10.42-3.1C449.52,432.59,448.11,430.33,448.11,427.89Z" transform="translate(-158.81 -234.67)"/><path class="cls-1" d="M587.58,383.93V357.17q0-22.26,17.19-38.46t41.42-16.21q23.1,0,39.59,14.66t16.48,37q0,8.63-2,13.93a13,13,0,0,1-6.2,7.47,26.54,26.54,0,0,1-7.89,2.73,64.67,64.67,0,0,1-9.58.57H617.17v6.53q0,14.21,10.14,22.57t26.49,8.38a46.27,46.27,0,0,0,21.83-5.4q10.29-5.38,12.54-5.39,4.8,0,8.17,4.53c2.26,3,3.39,5.94,3.39,8.76q0,7-13.53,14.07T653,440q-28.74,0-47.05-15.5T587.58,383.93ZM617.17,360h46.77q6.19,0,8.31-1.66t2.12-6.66a25.07,25.07,0,0,0-8.17-18.85Q658,325,645.91,325a29.94,29.94,0,0,0-20.29,7.35,23.72,23.72,0,0,0-8.45,18.72Z" transform="translate(-158.81 -234.67)"/><path class="cls-1" d="M726.21,427.89V313.77q0-4.22,4.09-6.9t10.57-2.68a16.06,16.06,0,0,1,9.29,2.71,8.18,8.18,0,0,1,4,7v10.27q12.1-21.64,37.47-21.65a34.29,34.29,0,0,1,22.12,7.83A49.19,49.19,0,0,1,828.5,331q7-13.95,18.45-21.2A44.26,44.26,0,0,1,871,302.5q20,0,34.52,15.08T920.07,358v69.88c0,2.44-1.51,4.7-4.51,6.76a17.93,17.93,0,0,1-10.42,3.1A17.55,17.55,0,0,1,895,434.66c-3-2.06-4.51-4.3-4.51-6.74v-69.7q0-13.77-7.89-21.64a25.13,25.13,0,0,0-18.31-7.87q-10.42,0-18.46,7.87t-8,21.08V428.2a7.71,7.71,0,0,1-4.36,7.17,21.81,21.81,0,0,1-10.57,2.38,21.31,21.31,0,0,1-10.14-2.38,7.68,7.68,0,0,1-4.51-7.17V357.94q0-12.65-7.75-20.8A24.63,24.63,0,0,0,782,329a25,25,0,0,0-18.45,7.87q-7.75,7.88-7.75,21.36v69.7c0,2.44-1.51,4.68-4.51,6.74a18,18,0,0,1-10.42,3.09,17.13,17.13,0,0,1-10.43-3.1C727.62,432.59,726.21,430.33,726.21,427.89Z" transform="translate(-158.81 -234.67)"/><path class="cls-1" d="M934.72,488.47q0-12.68,8.17-12.68,12.69,0,25.08-12.11t15.22-34.1L935.85,320.25a6.14,6.14,0,0,1-1.13-3.94q0-5.35,6.48-9.72a23.07,23.07,0,0,1,13-4.37q7.05,0,9,5.36l35.5,91.57,30.43-91.57a8.71,8.71,0,0,1,8.46-5.36q5.91,0,12.82,4.37t6.9,10.28a6.85,6.85,0,0,1-.56,3.38L1015,430.43l-4.79,12.68L1005,455.22a109,109,0,0,1-6.06,12.4L992.2,478a38.82,38.82,0,0,1-8.45,9.73q-4.23,3.23-9.58,6.76a36.93,36.93,0,0,1-11.84,5.07,59.36,59.36,0,0,1-13.8,1.55Q934.72,501.15,934.72,488.47Z" transform="translate(-158.81 -234.67)"/><text x="-158.81" y="-234.67"></text></svg>